<svg width="216" height="211" viewBox="0 0 216 211" fill="none" xmlns="http://www.w3.org/2000/svg">
<g filter="url(#filter0_dn_362_123)">
<rect x="5" y="1" width="206" height="201" rx="100.5" fill="#375B71" shape-rendering="crispEdges"/>
<rect x="5" y="1" width="206" height="201" rx="100.5" stroke="#375B71" stroke-width="1.5" stroke-linecap="round" stroke-linejoin="round" shape-rendering="crispEdges"/>
<path d="M59 144C59 144 73.2746 124.406 108.497 124.406C143.719 124.406 158 144 158 144M108.497 100.309C113.592 100.309 118.479 98.1328 122.082 94.2594C125.685 90.3859 127.709 85.1324 127.709 79.6545C127.709 74.1766 125.685 68.923 122.082 65.0496C118.479 61.1761 113.592 59 108.497 59C103.401 59 98.5148 61.1761 94.9118 65.0496C91.3088 68.923 89.2847 74.1766 89.2847 79.6545C89.2847 85.1324 91.3088 90.3859 94.9118 94.2594C98.5148 98.1328 103.401 100.309 108.497 100.309Z" fill="white"/>
<path d="M59 144C59 144 73.2746 124.406 108.497 124.406C143.719 124.406 158 144 158 144M108.497 100.309C113.592 100.309 118.479 98.1328 122.082 94.2594C125.685 90.3859 127.709 85.1324 127.709 79.6545C127.709 74.1766 125.685 68.923 122.082 65.0496C118.479 61.1761 113.592 59 108.497 59C103.401 59 98.5148 61.1761 94.9118 65.0496C91.3088 68.923 89.2847 74.1766 89.2847 79.6545C89.2847 85.1324 91.3088 90.3859 94.9118 94.2594C98.5148 98.1328 103.401 100.309 108.497 100.309Z" stroke="black" stroke-width="1.5" stroke-linecap="round" stroke-linejoin="round"/>
</g>
<defs>
<filter id="filter0_dn_362_123" x="0.25" y="0.25" width="215.5" height="210.5" filterUnits="userSpaceOnUse" color-interpolation-filters="sRGB">
<feFlood flood-opacity="0" result="BackgroundImageFix"/>
<feColorMatrix in="SourceAlpha" type="matrix" values="0 0 0 0 0 0 0 0 0 0 0 0 0 0 0 0 0 0 127 0" result="hardAlpha"/>
<feOffset dy="4"/>
<feGaussianBlur stdDeviation="2"/>
<feComposite in2="hardAlpha" operator="out"/>
<feColorMatrix type="matrix" values="0 0 0 0 0 0 0 0 0 0 0 0 0 0 0 0 0 0 0.25 0"/>
<feBlend mode="normal" in2="BackgroundImageFix" result="effect1_dropShadow_362_123"/>
<feBlend mode="normal" in="SourceGraphic" in2="BackgroundImageFix" result="shape"/>
<feTurbulence type="fractalNoise" baseFrequency="0.10000000149011612 0.10000000149011612" stitchTiles="stitch" numOctaves="3" result="noise" seed="9583" />
<feComponentTransfer in="noise" result="coloredNoise1">
<feFuncR type="linear" slope="2" intercept="-0.5" />
<feFuncG type="linear" slope="2" intercept="-0.5" />
<feFuncB type="linear" slope="2" intercept="-0.5" />
<feFuncA type="discrete" tableValues="0 0 0 0 0 0 0 0 0 0 0 0 1 1 1 1 1 1 1 1 1 1 1 1 1 1 1 1 1 1 1 1 1 1 1 1 1 1 0 0 0 0 0 0 0 0 0 0 0 0 0 0 0 0 0 0 0 0 0 0 0 0 0 0 0 0 0 0 0 0 0 0 0 0 0 0 0 0 0 0 0 0 0 0 0 0 0 0 0 0 0 0 0 0 0 0 0 0 0 0 "/>
</feComponentTransfer>
<feComposite operator="in" in2="shape" in="coloredNoise1" result="noise1Clipped" />
<feComponentTransfer in="noise1Clipped" result="color1">
<feFuncA type="table" tableValues="0 0.3" />
</feComponentTransfer>
<feMerge result="effect2_noise_362_123">
<feMergeNode in="shape" />
<feMergeNode in="color1" />
</feMerge>
<feBlend mode="normal" in="effect2_noise_362_123" in2="effect1_dropShadow_362_123" result="effect2_noise_362_123"/>
</filter>
</defs>
</svg>
